<?xml version="1.0" encoding="utf-8"?>
<svg xmlns="http://www.w3.org/2000/svg" style="margin: auto; background: rgb(43, 46, 53); display: block; shape-rendering: auto;" width="281" height="183" preserveAspectRatio="xMidYMid">
<style type="text/css">
  text {
    text-anchor: middle; font-size: 46px; opacity: 0;
  }
</style>
<g style="transform-origin: 140.5px 91.5px; transform: scale(0.754098);">
<g transform="translate(140.5,91.5)">
  <g transform="translate(0,0)"><g class="path" style="transform: matrix(1, 0, 0, 1, 0, 0); transform-origin: -164.395px 3.63551px; animation: 1.33333s linear -1.2381s infinite normal forwards running bounce-8a98279a-62f2-4023-a216-a78cd755f237;"><path d="M16.77-23.73L16.77-23.73L16.77-23.73Q24.52-23.73 24.52-17.57L24.52-17.57L24.52-17.57Q24.52-13.72 20.89-11.74L20.89-11.74L20.89-11.74Q17.26-9.76 10.55-9.70L10.55-9.70L10.55-9.70Q10.43-7.50 10.43-6.22L10.43-6.22L10.43-6.22Q10.43-3.48 11.68-2.17L11.68-2.17L11.68-2.17Q12.93-0.85 14.82-0.85L14.82-0.85L14.82-0.85Q16.71-0.85 18.27-1.59L18.27-1.59L18.27-1.59Q19.82-2.32 20.74-3.32L20.74-3.32L20.74-3.32Q21.66-4.33 22.33-5.43L22.33-5.43L22.33-5.43Q23.55-7.44 23.55-7.99L23.55-7.99L24.64-7.50L24.64-7.50Q24.46-6.53 23.55-4.91L23.55-4.91L23.55-4.91Q22.63-3.29 21.53-2.26L21.53-2.26L21.53-2.26Q20.43-1.22 18.30-0.34L18.30-0.34L18.30-0.34Q16.16 0.55 13.54 0.55L13.54 0.55L13.54 0.55Q8.60 0.55 6.07-1.80L6.07-1.80L6.07-1.80Q3.54-4.15 3.54-8.23L3.54-8.23L3.54-8.23Q3.54-15.49 7.14-19.61L7.14-19.61L7.14-19.61Q10.74-23.73 16.77-23.73zM23.00-17.57L23.00-17.57Q23.00-19.58 21.81-20.89L21.81-20.89L21.81-20.89Q20.62-22.20 18.27-22.20L18.27-22.20L18.27-22.20Q15.92-22.20 13.69-19.40L13.69-19.40L13.69-19.40Q11.47-16.59 10.74-11.10L10.74-11.10L10.74-11.10Q23.00-11.16 23.00-17.57L23.00-17.57" fill="#51cacc" stroke="none" stroke-width="none" transform="translate(-178.4849853515625,15.22550938197545)" style="fill: rgb(81, 202, 204);"></path></g><g class="path" style="transform: matrix(1, 0, 0, 1, 0, 0); transform-origin: -138.805px 3.63551px; animation: 1.33333s linear -1.14286s infinite normal forwards running bounce-8a98279a-62f2-4023-a216-a78cd755f237;"><path d="M43.80-16.16L43.80-16.16L43.80-16.16Q42.52-17.45 42.52-19.28L42.52-19.28L42.52-19.28Q42.52-21.11 43.80-22.42L43.80-22.42L43.80-22.42Q45.08-23.73 46.70-23.73L46.70-23.73L46.70-23.73Q48.31-23.73 49.44-22.91L49.44-22.91L49.44-22.91Q50.57-22.08 51.06-20.80L51.06-20.80L51.06-20.80Q51.12-20.74 51.12-20.68L51.12-20.68L51.12-20.62L51.12-20.62Q51.85-19.03 51.85-16.01L51.85-16.01L51.85-16.01Q51.85-12.99 51.15-10.49L51.15-10.49L51.15-10.49Q50.45-7.99 49.01-5.40L49.01-5.40L49.01-5.40Q47.58-2.81 44.83-1.13L44.83-1.13L44.83-1.13Q42.09 0.55 38.37 0.55L38.37 0.55L38.37 0.55Q34.65 0.55 32.18-1.89L32.18-1.89L32.18-1.89Q29.71-4.33 29.71-7.50L29.71-7.50L29.71-7.50Q29.71-10.67 30.84-15.34L30.84-15.34L30.84-15.34Q31.96-20.01 32.09-22.51L32.09-22.51L32.09-22.51Q31.11-22.45 30.20-21.81L30.20-21.81L30.20-21.81Q29.28-21.17 28.85-20.56L28.85-20.56L28.43-19.95L27.51-20.68L27.51-20.68Q27.69-21.04 28.06-21.53L28.06-21.53L28.06-21.53Q28.43-22.02 29.92-22.88L29.92-22.88L29.92-22.88Q31.41-23.73 33.67-23.73L33.67-23.73L33.67-23.73Q35.93-23.73 37.30-22.27L37.30-22.27L37.30-22.27Q38.67-20.80 38.67-18.54L38.67-18.54L38.67-18.54Q38.67-16.29 37.45-11.56L37.45-11.56L37.45-11.56Q36.23-6.83 36.23-4.91L36.23-4.91L36.23-4.91Q36.23-2.99 37.12-1.89L37.12-1.89L37.12-1.89Q38.00-0.79 39.65-0.79L39.65-0.79L39.65-0.79Q43.74-0.79 47.09-5.25L47.09-5.25L47.09-5.25Q50.45-9.70 50.45-15.19L50.45-15.19L50.45-15.19Q50.45-15.62 50.33-16.47L50.33-16.47L50.33-16.47Q49.04-14.88 47.06-14.88L47.06-14.88L47.06-14.88Q45.08-14.88 43.80-16.16" fill="#51cacc" stroke="none" stroke-width="none" transform="translate(-178.4849853515625,15.22550938197545)" style="fill: rgb(157, 248, 113);"></path></g><g class="path" style="transform: matrix(1, 0, 0, 1, 0, 0); transform-origin: -113.275px 3.63551px; animation: 1.33333s linear -1.04762s infinite normal forwards running bounce-8a98279a-62f2-4023-a216-a78cd755f237;"><path d="M67.89-23.73L67.89-23.73L67.89-23.73Q75.64-23.73 75.64-17.57L75.64-17.57L75.64-17.57Q75.64-13.72 72.01-11.74L72.01-11.74L72.01-11.74Q68.38-9.76 61.67-9.70L61.67-9.70L61.67-9.70Q61.55-7.50 61.55-6.22L61.55-6.22L61.55-6.22Q61.55-3.48 62.80-2.17L62.80-2.17L62.80-2.17Q64.05-0.85 65.94-0.85L65.94-0.85L65.94-0.85Q67.83-0.85 69.39-1.59L69.39-1.59L69.39-1.59Q70.94-2.32 71.86-3.32L71.86-3.32L71.86-3.32Q72.77-4.33 73.44-5.43L73.44-5.43L73.44-5.43Q74.66-7.44 74.66-7.99L74.66-7.99L75.76-7.50L75.76-7.50Q75.58-6.53 74.66-4.91L74.66-4.91L74.66-4.91Q73.75-3.29 72.65-2.26L72.65-2.26L72.65-2.26Q71.55-1.22 69.42-0.34L69.42-0.34L69.42-0.34Q67.28 0.55 64.66 0.55L64.66 0.55L64.66 0.55Q59.72 0.55 57.19-1.80L57.19-1.80L57.19-1.80Q54.66-4.15 54.66-8.23L54.66-8.23L54.66-8.23Q54.66-15.49 58.25-19.61L58.25-19.61L58.25-19.61Q61.85-23.73 67.89-23.73zM74.11-17.57L74.11-17.57Q74.11-19.58 72.93-20.89L72.93-20.89L72.93-20.89Q71.74-22.20 69.39-22.20L69.39-22.20L69.39-22.20Q67.04-22.20 64.81-19.40L64.81-19.40L64.81-19.40Q62.59-16.59 61.85-11.10L61.85-11.10L61.85-11.10Q74.11-11.16 74.11-17.57L74.11-17.57" fill="#51cacc" stroke="none" stroke-width="none" transform="translate(-178.4849853515625,15.22550938197545)" style="fill: rgb(224, 255, 119);"></path></g><g class="path" style="transform: matrix(1, 0, 0, 1, 0, 0); transform-origin: -85.67px 3.63551px; animation: 1.33333s linear -0.952381s infinite normal forwards running bounce-8a98279a-62f2-4023-a216-a78cd755f237;"><path d="M102.54-0.67L102.54-0.67L102.54-0.67Q104.00-0.67 105.59-2.38L105.59-2.38L106.51-1.65L106.51-1.65Q106.08-0.79 104.61-0.12L104.61-0.12L104.61-0.12Q103.15 0.55 101.38 0.55L101.38 0.55L101.38 0.55Q95.83 0.55 95.83-4.45L95.83-4.45L95.83-4.45Q95.83-6.59 96.93-12.08L96.93-12.08L96.93-12.08Q98.03-17.57 98.03-19.28L98.03-19.28L98.03-19.28Q98.03-21.90 95.53-21.90L95.53-21.90L95.53-21.90Q93.51-21.90 91.65-19.28L91.65-19.28L91.65-19.28Q89.79-16.65 88.57-12.08L88.57-12.08L86.50-0.67L86.50-0.67Q88.39-0.85 89.61-2.38L89.61-2.38L90.52-1.65L90.52-1.65Q88.69 0.55 85.95 0.55L85.95 0.55L85.95 0.55Q83.20 0.55 81.65-0.85L81.65-0.85L81.65-0.85Q80.09-2.26 80.09-4.51L80.09-4.51L80.09-4.51Q80.09-5.37 81.07-11.22L81.07-11.22L83.08-22.51L83.08-22.51Q81.25-22.33 80.03-20.80L80.03-20.80L79.12-21.53L79.12-21.53Q80.95-23.73 83.72-23.73L83.72-23.73L83.72-23.73Q86.50-23.73 88.02-22.33L88.02-22.33L88.02-22.33Q89.55-20.92 89.55-18.36L89.55-18.36L89.55-18.00L89.55-18.00Q92.05-23.73 97.36-23.73L97.36-23.73L97.36-23.73Q100.95-23.73 102.97-21.69L102.97-21.69L102.97-21.69Q104.98-19.64 104.98-16.04L104.98-16.04L104.98-16.04Q104.98-14.15 103.82-8.75L103.82-8.75L103.82-8.75Q102.66-3.35 102.54-0.67" fill="#51cacc" stroke="none" stroke-width="none" transform="translate(-178.4849853515625,15.22550938197545)" style="fill: rgb(222, 157, 214);"></path></g><g class="path" style="transform: matrix(1, 0, 0, 1, 0, 0); transform-origin: -36.72px 3.63551px; animation: 1.33333s linear -0.857143s infinite normal forwards running bounce-8a98279a-62f2-4023-a216-a78cd755f237;"><path d="M153.41-16.16L153.41-16.16L153.41-16.16Q152.13-17.45 152.13-19.28L152.13-19.28L152.13-19.28Q152.13-21.11 153.41-22.42L153.41-22.42L153.41-22.42Q154.70-23.73 156.31-23.73L156.31-23.73L156.31-23.73Q157.93-23.73 159.06-22.91L159.06-22.91L159.06-22.91Q160.19-22.08 160.67-20.80L160.67-20.80L160.67-20.80Q160.73-20.74 160.73-20.68L160.73-20.68L160.73-20.62L160.73-20.62Q161.47-19.03 161.47-16.26L161.47-16.26L161.47-16.26Q161.47-13.48 161.10-11.53L161.10-11.53L161.10-11.53Q160.73-9.58 159.76-7.38L159.76-7.38L159.76-7.38Q158.78-5.18 157.38-3.45L157.38-3.45L157.38-3.45Q155.98-1.71 153.63-0.58L153.63-0.58L153.63-0.58Q151.28 0.55 148.41 0.55L148.41 0.55L148.41 0.55Q143.53 0.55 141.09-2.99L141.09-2.99L141.09-2.99Q138.16 0.55 133.10 0.55L133.10 0.55L133.10 0.55Q129.20 0.55 126.73-1.89L126.73-1.89L126.73-1.89Q124.26-4.33 124.26-7.50L124.26-7.50L124.26-7.50Q124.26-10.67 125.39-15.34L125.39-15.34L125.39-15.34Q126.51-20.01 126.64-22.51L126.64-22.51L126.64-22.51Q125.66-22.45 124.74-21.81L124.74-21.81L124.74-21.81Q123.83-21.17 123.40-20.56L123.40-20.56L122.98-19.95L122.06-20.68L122.06-20.68Q122.24-21.04 122.61-21.53L122.61-21.53L122.61-21.53Q122.98-22.02 124.47-22.88L124.47-22.88L124.47-22.88Q125.96-23.73 128.22-23.73L128.22-23.73L128.22-23.73Q130.48-23.73 131.85-22.27L131.85-22.27L131.85-22.27Q133.22-20.80 133.22-18.54L133.22-18.54L133.22-18.54Q133.22-16.29 132.00-11.56L132.00-11.56L132.00-11.56Q130.78-6.83 130.78-4.91L130.78-4.91L130.78-4.91Q130.78-2.99 131.67-1.89L131.67-1.89L131.67-1.89Q132.55-0.79 134.20-0.79L134.20-0.79L134.20-0.79Q137.74-0.79 140.24-4.45L140.24-4.45L140.24-4.45Q139.57-6.16 139.57-8.42L139.57-8.42L139.57-8.42Q139.57-10.67 140.70-15.34L140.70-15.34L140.70-15.34Q141.82-20.01 141.95-22.51L141.95-22.51L141.95-22.51Q140.97-22.45 140.06-21.81L140.06-21.81L140.06-21.81Q139.14-21.17 138.71-20.56L138.71-20.56L138.29-19.95L137.37-20.68L137.37-20.68Q137.56-21.04 137.92-21.53L137.92-21.53L137.92-21.53Q138.29-22.02 139.78-22.88L139.78-22.88L139.78-22.88Q141.28-23.73 143.53-23.73L143.53-23.73L143.53-23.73Q145.79-23.73 147.16-22.27L147.16-22.27L147.16-22.27Q148.53-20.80 148.53-18.54L148.53-18.54L148.53-18.54Q148.53-16.29 147.31-11.56L147.31-11.56L147.31-11.56Q146.09-6.83 146.09-4.91L146.09-4.91L146.09-4.91Q146.09-2.99 146.98-1.89L146.98-1.89L146.98-1.89Q147.86-0.79 149.51-0.79L149.51-0.79L149.51-0.79Q153.60-0.79 156.83-5.22L156.83-5.22L156.83-5.22Q160.06-9.64 160.06-15.19L160.06-15.19L160.06-15.19Q160.06-15.62 159.94-16.47L159.94-16.47L159.94-16.47Q158.66-14.88 156.68-14.88L156.68-14.88L156.68-14.88Q154.70-14.88 153.41-16.16" fill="#51cacc" stroke="none" stroke-width="none" transform="translate(-178.4849853515625,15.22550938197545)" style="fill: rgb(255, 112, 142);"></path></g><g class="path" style="transform: matrix(1, 0, 0, 1, 0, 0); transform-origin: -0.914986px 3.63551px; animation: 1.33333s linear -0.761905s infinite normal forwards running bounce-8a98279a-62f2-4023-a216-a78cd755f237;"><path d="M185.93 0.55L185.93 0.55L185.93 0.55Q180.56 0.55 180.07-4.15L180.07-4.15L180.07-4.15Q177.39 0.55 173.30 0.55L173.30 0.55L173.30 0.55Q169.21 0.55 166.80-1.92L166.80-1.92L166.80-1.92Q164.39-4.39 164.39-8.85L164.39-8.85L164.39-8.85Q164.39-15.80 167.81-19.76L167.81-19.76L167.81-19.76Q171.23-23.73 176.66-23.73L176.66-23.73L176.66-23.73Q181.11-23.73 182.57-19.52L182.57-19.52L182.57-19.52Q182.88-21.35 183.24-23.18L183.24-23.18L183.24-23.18Q187.76-23.18 189.95-23.55L189.95-23.55L190.75-23.73L186.54-0.67L186.54-0.67Q188.37-0.85 189.59-2.38L189.59-2.38L190.50-1.65L190.50-1.65Q188.67 0.55 185.93 0.55zM171.29-5.73L171.29-5.73Q171.29-2.99 171.99-1.92L171.99-1.92L171.99-1.92Q172.69-0.85 174.16-0.85L174.16-0.85L174.16-0.85Q175.62-0.85 177.14-2.44L177.14-2.44L177.14-2.44Q179.16-4.51 180.38-7.69L180.38-7.69L180.38-7.69Q180.56-8.48 181.08-11.50L181.08-11.50L181.08-11.50Q181.60-14.52 181.96-16.47L181.96-16.47L181.96-16.47Q181.78-18.79 180.68-20.50L180.68-20.50L180.68-20.50Q179.58-22.20 177.94-22.20L177.94-22.20L177.94-22.20Q174.95-22.20 173.12-16.87L173.12-16.87L173.12-16.87Q171.29-11.53 171.29-5.73L171.29-5.73" fill="#51cacc" stroke="none" stroke-width="none" transform="translate(-178.4849853515625,15.22550938197545)" style="fill: rgb(81, 202, 204);"></path></g><g class="path" style="transform: matrix(1, 0, 0, 1, 0, 0); transform-origin: 26.475px 3.63551px; animation: 1.33333s linear -0.666667s infinite normal forwards running bounce-8a98279a-62f2-4023-a216-a78cd755f237;"><path d="M208.62-12.75L208.62-12.75L208.62-12.75Q207.34-14.03 207.34-15.86L207.34-15.86L207.34-15.86Q207.34-17.69 208.62-19.00L208.62-19.00L208.62-19.00Q209.90-20.31 211.73-20.31L211.73-20.31L211.73-20.31Q212.28-20.31 213.13-20.07L213.13-20.07L213.13-20.07Q211.97-22.20 208.80-22.20L208.80-22.20L208.80-22.20Q205.63-22.20 203.19-18.18L203.19-18.18L203.19-18.18Q200.75-14.15 200.75-6.22L200.75-6.22L200.75-6.22Q200.75-3.48 202.00-2.17L202.00-2.17L202.00-2.17Q203.25-0.85 205.14-0.85L205.14-0.85L205.14-0.85Q207.03-0.85 208.59-1.59L208.59-1.59L208.59-1.59Q210.14-2.32 211.06-3.32L211.06-3.32L211.06-3.32Q211.97-4.33 212.65-5.43L212.65-5.43L212.65-5.43Q213.87-7.44 213.87-7.99L213.87-7.99L214.96-7.50L214.96-7.50Q214.78-6.53 213.87-4.91L213.87-4.91L213.87-4.91Q212.95-3.29 211.85-2.26L211.85-2.26L211.85-2.26Q210.75-1.22 208.62-0.34L208.62-0.34L208.62-0.34Q206.48 0.55 203.86 0.55L203.86 0.55L203.86 0.55Q198.92 0.55 196.39-1.80L196.39-1.80L196.39-1.80Q193.86-4.15 193.86-8.23L193.86-8.23L193.86-8.23Q193.86-15.49 197.49-19.61L197.49-19.61L197.49-19.61Q201.12-23.73 207.34-23.73L207.34-23.73L207.34-23.73Q211.55-23.73 213.81-21.59L213.81-21.59L213.81-21.59Q216.06-19.46 216.06-15.98L216.06-15.98L216.06-15.98Q216.06-13.79 214.75-12.63L214.75-12.63L214.75-12.63Q213.44-11.47 211.67-11.47L211.67-11.47L211.67-11.47Q209.90-11.47 208.62-12.75" fill="#51cacc" stroke="none" stroke-width="none" transform="translate(-178.4849853515625,15.22550938197545)" style="fill: rgb(157, 248, 113);"></path></g><g class="path" style="transform: matrix(1, 0, 0, 1, 0, 0); transform-origin: 53.25px -4.26449px; animation: 1.33333s linear -0.571429s infinite normal forwards running bounce-8a98279a-62f2-4023-a216-a78cd755f237;"><path d="M241.50-0.67L241.50-0.67L241.50-0.67Q242.96-0.67 244.55-2.38L244.55-2.38L245.46-1.65L245.46-1.65Q245.04-0.79 243.57-0.12L243.57-0.12L243.57-0.12Q242.11 0.55 240.34 0.55L240.34 0.55L240.34 0.55Q234.79 0.55 234.79-4.45L234.79-4.45L234.79-4.45Q234.79-6.59 235.89-12.08L235.89-12.08L235.89-12.08Q236.98-17.57 236.98-19.28L236.98-19.28L236.98-19.28Q236.98-21.90 234.48-21.90L234.48-21.90L234.48-21.90Q232.41-21.90 230.49-19.09L230.49-19.09L230.49-19.09Q228.57-16.29 227.35-11.47L227.35-11.47L225.33 0L218.01 0L224.78-38.31L224.78-38.31Q222.95-38.13 221.73-36.60L221.73-36.60L220.82-37.33L220.82-37.33Q222.65-39.53 225.43-39.53L225.43-39.53L225.43-39.53Q228.20-39.53 229.73-38.13L229.73-38.13L229.73-38.13Q231.25-36.72 231.25-34.16L231.25-34.16L231.25-34.16Q231.25-33.67 231.13-32.57L231.13-32.57L228.57-18.12L228.57-18.12Q231.07-23.73 236.31-23.73L236.31-23.73L236.31-23.73Q239.91-23.73 241.93-21.69L241.93-21.69L241.93-21.69Q243.94-19.64 243.94-16.04L243.94-16.04L243.94-16.04Q243.94-14.15 242.78-8.75L242.78-8.75L242.78-8.75Q241.62-3.35 241.50-0.67" fill="#51cacc" stroke="none" stroke-width="none" transform="translate(-178.4849853515625,15.22550938197545)" style="fill: rgb(224, 255, 119);"></path></g><g class="path" style="transform: matrix(1, 0, 0, 1, 0, 0); transform-origin: 79.425px -0.87949px; animation: 1.33333s linear -0.47619s infinite normal forwards running bounce-8a98279a-62f2-4023-a216-a78cd755f237;"><path d="M249.00-23.18L252.11-23.18L253.76-32.21L253.76-32.21Q258.27-32.21 260.47-32.57L260.47-32.57L261.26-32.76L261.26-32.76Q260.41-28.49 259.37-23.18L259.37-23.18L266.94-23.18L266.81-22.08L259.19-22.08L259.19-22.08Q256.14-6.34 256.14-3.11L256.14-3.11L256.14-3.11Q256.14-1.16 258.21-1.16L258.21-1.16L258.21-1.16Q260.29-1.16 261.99-3.78L261.99-3.78L261.99-3.78Q263.70-6.41 264.43-9.46L264.43-9.46L265.53-9.09L265.53-9.09Q263.28 0.55 256.20 0.55L256.20 0.55L256.20 0.55Q253.27 0.55 251.32-1.07L251.32-1.07L251.32-1.07Q249.37-2.68 249.37-5.58L249.37-5.58L249.37-5.58Q249.37-8.48 251.87-22.08L251.87-22.08L248.88-22.08L249.00-23.18" fill="#51cacc" stroke="none" stroke-width="none" transform="translate(-178.4849853515625,15.22550938197545)" style="fill: rgb(222, 157, 214);"></path></g><g class="path" style="transform: matrix(1, 0, 0, 1, 0, 0); transform-origin: 99.98px 3.63551px; animation: 1.33333s linear -0.380952s infinite normal forwards running bounce-8a98279a-62f2-4023-a216-a78cd755f237;"><path d="M281.15-23.73L281.15-23.73L281.15-23.73Q288.90-23.73 288.90-17.57L288.90-17.57L288.90-17.57Q288.90-13.72 285.27-11.74L285.27-11.74L285.27-11.74Q281.64-9.76 274.93-9.70L274.93-9.70L274.93-9.70Q274.80-7.50 274.80-6.22L274.80-6.22L274.80-6.22Q274.80-3.48 276.06-2.17L276.06-2.17L276.06-2.17Q277.31-0.85 279.20-0.85L279.20-0.85L279.20-0.85Q281.09-0.85 282.64-1.59L282.64-1.59L282.64-1.59Q284.20-2.32 285.11-3.32L285.11-3.32L285.11-3.32Q286.03-4.33 286.70-5.43L286.70-5.43L286.70-5.43Q287.92-7.44 287.92-7.99L287.92-7.99L289.02-7.50L289.02-7.50Q288.83-6.53 287.92-4.91L287.92-4.91L287.92-4.91Q287.00-3.29 285.91-2.26L285.91-2.26L285.91-2.26Q284.81-1.22 282.67-0.34L282.67-0.34L282.67-0.34Q280.54 0.55 277.92 0.55L277.92 0.55L277.92 0.55Q272.97 0.55 270.44-1.80L270.44-1.80L270.44-1.80Q267.91-4.15 267.91-8.23L267.91-8.23L267.91-8.23Q267.91-15.49 271.51-19.61L271.51-19.61L271.51-19.61Q275.11-23.73 281.15-23.73zM287.37-17.57L287.37-17.57Q287.37-19.58 286.18-20.89L286.18-20.89L286.18-20.89Q284.99-22.20 282.64-22.20L282.64-22.20L282.64-22.20Q280.29-22.20 278.07-19.40L278.07-19.40L278.07-19.40Q275.84-16.59 275.11-11.10L275.11-11.10L275.11-11.10Q287.37-11.16 287.37-17.57L287.37-17.57" fill="#51cacc" stroke="none" stroke-width="none" transform="translate(-178.4849853515625,15.22550938197545)" style="fill: rgb(255, 112, 142);"></path></g><g class="path" style="transform: matrix(1, 0, 0, 1, 0, 0); transform-origin: 127.58px 3.63551px; animation: 1.33333s linear -0.285714s infinite normal forwards running bounce-8a98279a-62f2-4023-a216-a78cd755f237;"><path d="M315.80-0.67L315.80-0.67L315.80-0.67Q317.26-0.67 318.85-2.38L318.85-2.38L319.76-1.65L319.76-1.65Q319.33-0.79 317.87-0.12L317.87-0.12L317.87-0.12Q316.41 0.55 314.64 0.55L314.64 0.55L314.64 0.55Q309.09 0.55 309.09-4.45L309.09-4.45L309.09-4.45Q309.09-6.59 310.18-12.08L310.18-12.08L310.18-12.08Q311.28-17.57 311.28-19.28L311.28-19.28L311.28-19.28Q311.28-21.90 308.78-21.90L308.78-21.90L308.78-21.90Q306.77-21.90 304.91-19.28L304.91-19.28L304.91-19.28Q303.05-16.65 301.83-12.08L301.83-12.08L299.75-0.67L299.75-0.67Q301.64-0.85 302.86-2.38L302.86-2.38L303.78-1.65L303.78-1.65Q301.95 0.55 299.20 0.55L299.20 0.55L299.20 0.55Q296.46 0.55 294.90-0.85L294.90-0.85L294.90-0.85Q293.35-2.26 293.35-4.51L293.35-4.51L293.35-4.51Q293.35-5.37 294.32-11.22L294.32-11.22L296.34-22.51L296.34-22.51Q294.51-22.33 293.29-20.80L293.29-20.80L292.37-21.53L292.37-21.53Q294.20-23.73 296.98-23.73L296.98-23.73L296.98-23.73Q299.75-23.73 301.28-22.33L301.28-22.33L301.28-22.33Q302.80-20.92 302.80-18.36L302.80-18.36L302.80-18.00L302.80-18.00Q305.30-23.73 310.61-23.73L310.61-23.73L310.61-23.73Q314.21-23.73 316.22-21.69L316.22-21.69L316.22-21.69Q318.24-19.64 318.24-16.04L318.24-16.04L318.24-16.04Q318.24-14.15 317.08-8.75L317.08-8.75L317.08-8.75Q315.92-3.35 315.80-0.67" fill="#51cacc" stroke="none" stroke-width="none" transform="translate(-178.4849853515625,15.22550938197545)" style="fill: rgb(81, 202, 204);"></path></g><g class="path" style="transform: matrix(1, 0, 0, 1, 0, 0); transform-origin: 148.69px 11.2905px; animation: 1.33333s linear -0.190476s infinite normal forwards running bounce-8a98279a-62f2-4023-a216-a78cd755f237;"><path d="M324.03-0.79L324.03-0.79L324.03-0.79Q322.75-2.07 322.75-3.90L322.75-3.90L322.75-3.90Q322.75-5.73 324.03-7.05L324.03-7.05L324.03-7.05Q325.31-8.36 327.14-8.36L327.14-8.36L327.14-8.36Q328.97-8.36 330.28-7.05L330.28-7.05L330.28-7.05Q331.60-5.73 331.60-3.90L331.60-3.90L331.60-3.90Q331.60-2.07 330.28-0.79L330.28-0.79L330.28-0.79Q328.97 0.49 327.14 0.49L327.14 0.49L327.14 0.49Q325.31 0.49 324.03-0.79" fill="#51cacc" stroke="none" stroke-width="none" transform="translate(-178.4849853515625,15.22550938197545)" style="fill: rgb(157, 248, 113);"></path></g><g class="path" style="transform: matrix(1, 0, 0, 1, 0, 0); transform-origin: 163.145px 11.2905px; animation: 1.33333s linear -0.0952381s infinite normal forwards running bounce-8a98279a-62f2-4023-a216-a78cd755f237;"><path d="M338.49-0.79L338.49-0.79L338.49-0.79Q337.21-2.07 337.21-3.90L337.21-3.90L337.21-3.90Q337.21-5.73 338.49-7.05L338.49-7.05L338.49-7.05Q339.77-8.36 341.60-8.36L341.60-8.36L341.60-8.36Q343.43-8.36 344.74-7.05L344.74-7.05L344.74-7.05Q346.05-5.73 346.05-3.90L346.05-3.90L346.05-3.90Q346.05-2.07 344.74-0.79L344.74-0.79L344.74-0.79Q343.43 0.49 341.60 0.49L341.60 0.49L341.60 0.49Q339.77 0.49 338.49-0.79" fill="#51cacc" stroke="none" stroke-width="none" transform="translate(-178.4849853515625,15.22550938197545)" style="fill: rgb(224, 255, 119);"></path></g><g class="path" style="transform: matrix(1, 0, 0, 1, 0, 0); transform-origin: 177.6px 11.2905px; animation: 1.33333s linear 0s infinite normal forwards running bounce-8a98279a-62f2-4023-a216-a78cd755f237;"><path d="M352.95-0.79L352.95-0.79L352.95-0.79Q351.66-2.07 351.66-3.90L351.66-3.90L351.66-3.90Q351.66-5.73 352.95-7.05L352.95-7.05L352.95-7.05Q354.23-8.36 356.06-8.36L356.06-8.36L356.06-8.36Q357.89-8.36 359.20-7.05L359.20-7.05L359.20-7.05Q360.51-5.73 360.51-3.90L360.51-3.90L360.51-3.90Q360.51-2.07 359.20-0.79L359.20-0.79L359.20-0.79Q357.89 0.49 356.06 0.49L356.06 0.49L356.06 0.49Q354.23 0.49 352.95-0.79" fill="#51cacc" stroke="none" stroke-width="none" transform="translate(-178.4849853515625,15.22550938197545)" style="fill: rgb(222, 157, 214);"></path></g></g>
</g>
</g>
<style id="bounce-8a98279a-62f2-4023-a216-a78cd755f237" data-anikit="">@keyframes bounce-8a98279a-62f2-4023-a216-a78cd755f237
{
  0% {
    animation-timing-function: cubic-bezier(0.1361,0.2514,0.2175,0.8786);
    transform: translate(0,0px) scaleY(1);
  }
  37% {
    animation-timing-function: cubic-bezier(0.7674,0.1844,0.8382,0.7157);
    transform: translate(0,-39.96px) scaleY(1);
  }
  72% {
    animation-timing-function: cubic-bezier(0.1118,0.2149,0.2172,0.941);
    transform: translate(0,0px) scaleY(1);
  }
  87% {
    animation-timing-function: cubic-bezier(0.7494,0.2259,0.8209,0.6963);
    transform: translate(0,19.900000000000002px) scaleY(0.602);
  }
  100% {
    transform: translate(0,0px) scaleY(1);
  }
}</style></svg>