<?xml version="1.0" standalone="no"?>
<!DOCTYPE svg PUBLIC "-//W3C//DTD SVG 20010904//EN"
 "http://www.w3.org/TR/2001/REC-SVG-20010904/DTD/svg10.dtd">
<svg version="1.0" xmlns="http://www.w3.org/2000/svg"
 width="200.000000pt" height="200.000000pt" viewBox="0 0 200.000000 200.000000"
 preserveAspectRatio="xMidYMid meet">
<metadata>
Created by potrace 1.11, written by Peter Selinger 2001-2013
</metadata>
<g transform="translate(0.000000,200.000000) scale(0.100000,-0.100000)"
fill="#000000" stroke="none">
<path d="M332 1675 l-26 -22 0 -448 -1 -448 -103 -38 c-57 -20 -105 -39 -108
-42 -3 -2 17 -7 43 -11 50 -7 107 -16 133 -21 8 -2 25 -4 38 -4 l24 -1 -6
-137 -5 -137 89 136 90 136 495 -1 495 0 0 -33 c0 -33 -6 -37 -46 -33 -3 0
-22 -24 -43 -53 l-37 -53 -94 -3 c-52 -1 -99 -7 -105 -12 -7 -6 -11 -55 -12
-127 l-1 -118 36 -60 c20 -33 40 -63 45 -66 10 -7 683 -6 690 1 3 3 21 31 41
62 36 57 36 57 36 172 0 63 -3 121 -6 130 -5 13 -24 16 -105 16 l-98 0 -32 48
c-39 56 -48 64 -71 58 -11 -3 -19 2 -20 12 -5 56 -4 57 37 59 29 2 46 9 63 28
l22 26 0 478 c0 457 -1 480 -19 502 l-19 24 -698 1 -697 1 -25 -22z m1384
-252 l1 -202 -23 16 c-39 25 -104 40 -148 33 l-41 -6 1 110 c1 124 -7 159 -39
173 -13 5 -221 9 -499 8 -474 0 -478 0 -499 -22 -21 -21 -21 -27 -21 -362 0
-187 3 -344 6 -349 3 -5 -12 -16 -34 -25 -29 -11 -40 -12 -41 -4 -4 54 0 817
4 824 3 5 293 8 669 8 l663 0 1 -202z m-528 44 c3 -15 -7 -17 -97 -17 -118 0
-117 1 -115 -111 1 -88 6 -99 43 -99 28 0 28 -1 28 -60 0 -33 4 -65 10 -71 6
-6 35 -12 64 -13 30 -2 57 -4 62 -5 4 0 7 -55 7 -121 l0 -120 -54 0 -55 0 1
58 c2 70 -4 82 -43 82 -25 0 -29 4 -29 29 0 37 -12 41 -115 41 -87 0 -95 -4
-95 -51 0 -18 -9 -19 -139 -19 l-140 0 -3 148 c-2 81 -2 192 0 247 l3 100 332
0 c307 0 332 -1 335 -18z m243 13 c1 -3 2 -63 3 -133 1 -97 -2 -131 -12 -140
-21 -17 -50 -80 -54 -118 -6 -48 9 -108 38 -153 14 -21 28 -49 30 -62 4 -24 4
-24 -86 -24 l-90 0 0 318 0 317 85 0 c47 0 86 -2 86 -5z m-241 -204 l0 -104
-30 -4 c-37 -6 -39 -3 -41 58 -2 62 -14 84 -44 84 -22 0 -25 4 -25 35 l0 35
70 0 70 0 0 -104z m457 -96 c46 -28 67 -66 68 -119 0 -105 -105 -170 -201
-125 -66 31 -95 113 -64 183 34 75 127 104 197 61z m-707 -213 c0 -13 5 -28
12 -35 7 -7 22 -12 35 -12 20 0 23 -5 23 -35 l0 -35 -105 0 -105 0 0 35 c0 32
3 35 29 35 29 0 41 14 41 51 0 15 7 19 35 19 30 0 35 -3 35 -23z m-210 -82 c0
-35 0 -35 -45 -35 -35 0 -43 3 -39 15 4 8 4 15 1 15 -2 0 -21 -7 -40 -15 -20
-8 -48 -15 -62 -15 -22 0 -25 4 -25 35 l0 35 105 0 105 0 0 -35z m987 -80 c1
-92 0 -95 -22 -95 -29 0 -32 10 -30 88 1 55 4 66 25 83 14 10 25 19 26 19 0 0
1 -43 1 -95z m-122 -85 c0 -69 -3 -133 -8 -143 -19 -40 -27 1 -27 134 0 127 2
140 17 137 15 -3 17 -19 18 -128z m-105 35 l0 -45 -471 0 -471 0 21 33 20 32
440 5 c242 3 443 8 447 13 13 12 14 8 14 -38z m207 -285 c10 -14 20 -37 21
-52 l3 -28 -140 0 c-87 0 -141 4 -142 10 -4 29 -2 38 15 66 l19 31 102 -1 c98
-1 104 -2 122 -26z m-331 -103 c7 -48 3 -47 207 -47 204 0 217 3 217 47 0 22
4 23 70 23 l70 0 0 -70 0 -70 -353 0 -353 0 0 70 0 71 69 -3 c59 -3 71 -6 73
-21z m525 -204 c-9 -17 -35 -18 -314 -19 -283 0 -305 1 -316 18 -11 17 3 18
314 18 308 0 325 -1 316 -17z"/>
<path d="M1598 1549 c-24 -13 -23 -46 1 -59 15 -7 23 -6 35 6 9 8 16 19 16 24
0 7 -28 41 -33 40 -1 0 -10 -5 -19 -11z"/>
<path d="M1597 1408 c-21 -11 -22 -41 -1 -58 13 -11 18 -10 35 6 32 32 4 74
-34 52z"/>
<path d="M1517 1145 c-42 -27 -60 -91 -33 -111 24 -17 56 -2 56 27 0 13 11 25
35 35 36 15 46 43 23 61 -20 16 -47 12 -81 -12z"/>
</g>
</svg>
